<svg width="40" height="40" viewBox="0 0 40 40" fill="none" xmlns="http://www.w3.org/2000/svg">
<circle cx="20" cy="20" r="20" fill="url(#paint0_linear)"/>
<g filter="url(#filter0_dd)">
<path fill-rule="evenodd" clip-rule="evenodd" d="M27 19H21V13C21 12.447 20.552 12 20 12C19.448 12 19 12.447 19 13V19H13C12.448 19 12 19.447 12 20C12 20.553 12.448 21 13 21H19V27C19 27.553 19.448 28 20 28C20.552 28 21 27.553 21 27V21H27C27.552 21 28 20.553 28 20C28 19.447 27.552 19 27 19Z" fill="#231F20"/>
<mask id="mask0" mask-type="alpha" maskUnits="userSpaceOnUse" x="12" y="12" width="16" height="16">
<path fill-rule="evenodd" clip-rule="evenodd" d="M27 19H21V13C21 12.447 20.552 12 20 12C19.448 12 19 12.447 19 13V19H13C12.448 19 12 19.447 12 20C12 20.553 12.448 21 13 21H19V27C19 27.553 19.448 28 20 28C20.552 28 21 27.553 21 27V21H27C27.552 21 28 20.553 28 20C28 19.447 27.552 19 27 19Z" fill="white"/>
</mask>
<g mask="url(#mask0)">
<g filter="url(#filter1_dd)">
<rect x="8" y="8" width="24" height="24" fill="white"/>
</g>
</g>
</g>
<defs>
<filter id="filter0_dd" x="6" y="7" width="28" height="28" filterUnits="userSpaceOnUse" color-interpolation-filters="sRGB">
<feFlood flood-opacity="0" result="BackgroundImageFix"/>
<feColorMatrix in="SourceAlpha" type="matrix" values="0 0 0 0 0 0 0 0 0 0 0 0 0 0 0 0 0 0 127 0"/>
<feOffset dy="1"/>
<feGaussianBlur stdDeviation="0.5"/>
<feColorMatrix type="matrix" values="0 0 0 0 0 0 0 0 0 0 0 0 0 0 0 0 0 0 0.03 0"/>
<feBlend mode="normal" in2="BackgroundImageFix" result="effect1_dropShadow"/>
<feColorMatrix in="SourceAlpha" type="matrix" values="0 0 0 0 0 0 0 0 0 0 0 0 0 0 0 0 0 0 127 0"/>
<feOffset dy="1"/>
<feGaussianBlur stdDeviation="1"/>
<feColorMatrix type="matrix" values="0 0 0 0 0 0 0 0 0 0 0 0 0 0 0 0 0 0 0.03 0"/>
<feBlend mode="normal" in2="effect1_dropShadow" result="effect2_dropShadow"/>
<feBlend mode="normal" in="SourceGraphic" in2="effect2_dropShadow" result="shape"/>
</filter>
<filter id="filter1_dd" x="6" y="7" width="28" height="28" filterUnits="userSpaceOnUse" color-interpolation-filters="sRGB">
<feFlood flood-opacity="0" result="BackgroundImageFix"/>
<feColorMatrix in="SourceAlpha" type="matrix" values="0 0 0 0 0 0 0 0 0 0 0 0 0 0 0 0 0 0 127 0"/>
<feOffset dy="1"/>
<feGaussianBlur stdDeviation="0.5"/>
<feColorMatrix type="matrix" values="0 0 0 0 0 0 0 0 0 0 0 0 0 0 0 0 0 0 0.03 0"/>
<feBlend mode="normal" in2="BackgroundImageFix" result="effect1_dropShadow"/>
<feColorMatrix in="SourceAlpha" type="matrix" values="0 0 0 0 0 0 0 0 0 0 0 0 0 0 0 0 0 0 127 0"/>
<feOffset dy="1"/>
<feGaussianBlur stdDeviation="1"/>
<feColorMatrix type="matrix" values="0 0 0 0 0 0 0 0 0 0 0 0 0 0 0 0 0 0 0.03 0"/>
<feBlend mode="normal" in2="effect1_dropShadow" result="effect2_dropShadow"/>
<feBlend mode="normal" in="SourceGraphic" in2="effect2_dropShadow" result="shape"/>
</filter>
<linearGradient id="paint0_linear" x1="29.3333" y1="37.3333" x2="6.66667" y2="4" gradientUnits="userSpaceOnUse">
<stop stop-color="#2A8BF2"/>
<stop offset="1" stop-color="#7CB8F7"/>
</linearGradient>
</defs>
</svg>
