<svg width="90" height="92" viewBox="0 0 90 92" fill="none" xmlns="http://www.w3.org/2000/svg">
<g filter="url(#filter0_ddd)">
<circle cx="45" cy="40" r="20" fill="#2A8BF2"/>
</g>
<path fill-rule="evenodd" clip-rule="evenodd" d="M50.4443 48H39.5553C39.2493 48 39.0003 47.776 39.0003 47.5V32.5C39.0003 32.224 39.2493 32 39.5553 32H44.0003V36.15C44.0003 37.722 45.2173 39 46.7143 39H51.0003V47.5C51.0003 47.776 50.7503 48 50.4443 48ZM50.6493 37H46.7143C46.3203 37 46.0003 36.619 46.0003 36.15V32H46.1123L50.6493 37ZM52.7403 36.328L47.2963 30.328C47.1073 30.119 46.8383 30 46.5553 30H39.5553C38.1463 30 37.0003 31.122 37.0003 32.5V47.5C37.0003 48.878 38.1463 50 39.5553 50H50.4443C51.8533 50 53.0003 48.878 53.0003 47.5V37C53.0003 36.751 52.9073 36.512 52.7403 36.328Z" fill="white"/>
<mask id="mask0" mask-type="alpha" maskUnits="userSpaceOnUse" x="37" y="30" width="17" height="20">
<path fill-rule="evenodd" clip-rule="evenodd" d="M50.4443 48H39.5553C39.2493 48 39.0003 47.776 39.0003 47.5V32.5C39.0003 32.224 39.2493 32 39.5553 32H44.0003V36.15C44.0003 37.722 45.2173 39 46.7143 39H51.0003V47.5C51.0003 47.776 50.7503 48 50.4443 48ZM50.6493 37H46.7143C46.3203 37 46.0003 36.619 46.0003 36.15V32H46.1123L50.6493 37ZM52.7403 36.328L47.2963 30.328C47.1073 30.119 46.8383 30 46.5553 30H39.5553C38.1463 30 37.0003 31.122 37.0003 32.5V47.5C37.0003 48.878 38.1463 50 39.5553 50H50.4443C51.8533 50 53.0003 48.878 53.0003 47.5V37C53.0003 36.751 52.9073 36.512 52.7403 36.328Z" fill="white"/>
</mask>
<g mask="url(#mask0)">
<rect x="33" y="28" width="24" height="24" fill="white"/>
</g>
<defs>
<filter id="filter0_ddd" x="0" y="0" width="90" height="92" filterUnits="userSpaceOnUse" color-interpolation-filters="sRGB">
<feFlood flood-opacity="0" result="BackgroundImageFix"/>
<feColorMatrix in="SourceAlpha" type="matrix" values="0 0 0 0 0 0 0 0 0 0 0 0 0 0 0 0 0 0 127 0"/>
<feOffset dy="5"/>
<feGaussianBlur stdDeviation="12.5"/>
<feColorMatrix type="matrix" values="0 0 0 0 0.164706 0 0 0 0 0.545098 0 0 0 0 0.94902 0 0 0 0.1 0"/>
<feBlend mode="normal" in2="BackgroundImageFix" result="effect1_dropShadow"/>
<feColorMatrix in="SourceAlpha" type="matrix" values="0 0 0 0 0 0 0 0 0 0 0 0 0 0 0 0 0 0 127 0"/>
<feOffset dy="7"/>
<feGaussianBlur stdDeviation="12.5"/>
<feColorMatrix type="matrix" values="0 0 0 0 0.164706 0 0 0 0 0.545098 0 0 0 0 0.94902 0 0 0 0.1 0"/>
<feBlend mode="normal" in2="effect1_dropShadow" result="effect2_dropShadow"/>
<feColorMatrix in="SourceAlpha" type="matrix" values="0 0 0 0 0 0 0 0 0 0 0 0 0 0 0 0 0 0 127 0"/>
<feOffset dy="10"/>
<feGaussianBlur stdDeviation="7.5"/>
<feColorMatrix type="matrix" values="0 0 0 0 0.164706 0 0 0 0 0.545098 0 0 0 0 0.94902 0 0 0 0.2 0"/>
<feBlend mode="normal" in2="effect2_dropShadow" result="effect3_dropShadow"/>
<feBlend mode="normal" in="SourceGraphic" in2="effect3_dropShadow" result="shape"/>
</filter>
</defs>
</svg>
