<svg width="90" height="92" viewBox="0 0 90 92" fill="none" xmlns="http://www.w3.org/2000/svg">
<g filter="url(#filter0_ddd)">
<circle cx="45" cy="40" r="20" fill="#2A8BF2"/>
</g>
<path fill-rule="evenodd" clip-rule="evenodd" d="M41 38C41.828 38 42.5 37.328 42.5 36.5C42.5 35.672 41.828 35 41 35C40.172 35 39.5 35.672 39.5 36.5C39.5 37.328 40.172 38 41 38ZM51 47H39.561L46.566 41.155C46.812 40.946 47.258 40.947 47.499 41.154L52 44.994V46C52 46.552 51.552 47 51 47ZM39 33H51C51.552 33 52 33.448 52 34V42.364L48.797 39.632C47.807 38.79 46.258 38.79 45.277 39.626L38 45.698V34C38 33.448 38.448 33 39 33ZM51 31H39C37.346 31 36 32.346 36 34V46C36 47.654 37.346 49 39 49H51C52.654 49 54 47.654 54 46V34C54 32.346 52.654 31 51 31Z" fill="white"/>
<mask id="mask0" mask-type="alpha" maskUnits="userSpaceOnUse" x="36" y="31" width="18" height="18">
<path fill-rule="evenodd" clip-rule="evenodd" d="M41 38C41.828 38 42.5 37.328 42.5 36.5C42.5 35.672 41.828 35 41 35C40.172 35 39.5 35.672 39.5 36.5C39.5 37.328 40.172 38 41 38ZM51 47H39.561L46.566 41.155C46.812 40.946 47.258 40.947 47.499 41.154L52 44.994V46C52 46.552 51.552 47 51 47ZM39 33H51C51.552 33 52 33.448 52 34V42.364L48.797 39.632C47.807 38.79 46.258 38.79 45.277 39.626L38 45.698V34C38 33.448 38.448 33 39 33ZM51 31H39C37.346 31 36 32.346 36 34V46C36 47.654 37.346 49 39 49H51C52.654 49 54 47.654 54 46V34C54 32.346 52.654 31 51 31Z" fill="white"/>
</mask>
<g mask="url(#mask0)">
<rect x="33" y="28" width="24" height="24" fill="white"/>
</g>
<defs>
<filter id="filter0_ddd" x="0" y="0" width="90" height="92" filterUnits="userSpaceOnUse" color-interpolation-filters="sRGB">
<feFlood flood-opacity="0" result="BackgroundImageFix"/>
<feColorMatrix in="SourceAlpha" type="matrix" values="0 0 0 0 0 0 0 0 0 0 0 0 0 0 0 0 0 0 127 0"/>
<feOffset dy="5"/>
<feGaussianBlur stdDeviation="12.5"/>
<feColorMatrix type="matrix" values="0 0 0 0 0.164706 0 0 0 0 0.545098 0 0 0 0 0.94902 0 0 0 0.07 0"/>
<feBlend mode="normal" in2="BackgroundImageFix" result="effect1_dropShadow"/>
<feColorMatrix in="SourceAlpha" type="matrix" values="0 0 0 0 0 0 0 0 0 0 0 0 0 0 0 0 0 0 127 0"/>
<feOffset dy="7"/>
<feGaussianBlur stdDeviation="12.5"/>
<feColorMatrix type="matrix" values="0 0 0 0 0.164706 0 0 0 0 0.545098 0 0 0 0 0.94902 0 0 0 0.03 0"/>
<feBlend mode="normal" in2="effect1_dropShadow" result="effect2_dropShadow"/>
<feColorMatrix in="SourceAlpha" type="matrix" values="0 0 0 0 0 0 0 0 0 0 0 0 0 0 0 0 0 0 127 0"/>
<feOffset dy="10"/>
<feGaussianBlur stdDeviation="7.5"/>
<feColorMatrix type="matrix" values="0 0 0 0 0 0 0 0 0 0 0 0 0 0 0 0 0 0 0.03 0"/>
<feBlend mode="normal" in2="effect2_dropShadow" result="effect3_dropShadow"/>
<feBlend mode="normal" in="SourceGraphic" in2="effect3_dropShadow" result="shape"/>
</filter>
</defs>
</svg>
