<svg width="90" height="92" viewBox="0 0 90 92" fill="none" xmlns="http://www.w3.org/2000/svg">
<g filter="url(#filter0_ddd)">
<circle cx="45" cy="40" r="20" fill="#2A8BF2"/>
</g>
<path fill-rule="evenodd" clip-rule="evenodd" d="M52 46.2559C52 46.6659 51.666 46.9999 51.256 46.9999H50V44.9999H52V46.2559ZM38 46.2559V44.9999H40V46.9999H38.744C38.334 46.9999 38 46.6659 38 46.2559ZM38.744 32.9999H40V34.9999H38V33.7439C38 33.3339 38.334 32.9999 38.744 32.9999ZM52 33.7439V34.9999H50V32.9999H51.256C51.666 32.9999 52 33.3339 52 33.7439ZM50 42.9999H52V40.9999H50V42.9999ZM50 38.9999H52V36.9999H50V38.9999ZM42 46.9999H48V32.9999H42V46.9999ZM38 42.9999H40V40.9999H38V42.9999ZM38 38.9999H40V36.9999H38V38.9999ZM51.256 30.9999H38.744C37.231 30.9999 36 32.2319 36 33.7439V46.2559C36 47.7689 37.231 48.9999 38.744 48.9999H51.256C52.769 48.9999 54 47.7689 54 46.2559V33.7439C54 32.2319 52.769 30.9999 51.256 30.9999Z" fill="white"/>
<mask id="mask0" mask-type="alpha" maskUnits="userSpaceOnUse" x="36" y="30" width="18" height="19">
<path fill-rule="evenodd" clip-rule="evenodd" d="M52 46.2559C52 46.6659 51.666 46.9999 51.256 46.9999H50V44.9999H52V46.2559ZM38 46.2559V44.9999H40V46.9999H38.744C38.334 46.9999 38 46.6659 38 46.2559ZM38.744 32.9999H40V34.9999H38V33.7439C38 33.3339 38.334 32.9999 38.744 32.9999ZM52 33.7439V34.9999H50V32.9999H51.256C51.666 32.9999 52 33.3339 52 33.7439ZM50 42.9999H52V40.9999H50V42.9999ZM50 38.9999H52V36.9999H50V38.9999ZM42 46.9999H48V32.9999H42V46.9999ZM38 42.9999H40V40.9999H38V42.9999ZM38 38.9999H40V36.9999H38V38.9999ZM51.256 30.9999H38.744C37.231 30.9999 36 32.2319 36 33.7439V46.2559C36 47.7689 37.231 48.9999 38.744 48.9999H51.256C52.769 48.9999 54 47.7689 54 46.2559V33.7439C54 32.2319 52.769 30.9999 51.256 30.9999Z" fill="white"/>
</mask>
<g mask="url(#mask0)">
<rect x="33" y="28" width="24" height="24" fill="white"/>
</g>
<defs>
<filter id="filter0_ddd" x="0" y="0" width="90" height="92" filterUnits="userSpaceOnUse" color-interpolation-filters="sRGB">
<feFlood flood-opacity="0" result="BackgroundImageFix"/>
<feColorMatrix in="SourceAlpha" type="matrix" values="0 0 0 0 0 0 0 0 0 0 0 0 0 0 0 0 0 0 127 0"/>
<feOffset dy="5"/>
<feGaussianBlur stdDeviation="12.5"/>
<feColorMatrix type="matrix" values="0 0 0 0 0.164706 0 0 0 0 0.545098 0 0 0 0 0.94902 0 0 0 0.07 0"/>
<feBlend mode="normal" in2="BackgroundImageFix" result="effect1_dropShadow"/>
<feColorMatrix in="SourceAlpha" type="matrix" values="0 0 0 0 0 0 0 0 0 0 0 0 0 0 0 0 0 0 127 0"/>
<feOffset dy="7"/>
<feGaussianBlur stdDeviation="12.5"/>
<feColorMatrix type="matrix" values="0 0 0 0 0.164706 0 0 0 0 0.545098 0 0 0 0 0.94902 0 0 0 0.03 0"/>
<feBlend mode="normal" in2="effect1_dropShadow" result="effect2_dropShadow"/>
<feColorMatrix in="SourceAlpha" type="matrix" values="0 0 0 0 0 0 0 0 0 0 0 0 0 0 0 0 0 0 127 0"/>
<feOffset dy="10"/>
<feGaussianBlur stdDeviation="7.5"/>
<feColorMatrix type="matrix" values="0 0 0 0 0 0 0 0 0 0 0 0 0 0 0 0 0 0 0.03 0"/>
<feBlend mode="normal" in2="effect2_dropShadow" result="effect3_dropShadow"/>
<feBlend mode="normal" in="SourceGraphic" in2="effect3_dropShadow" result="shape"/>
</filter>
</defs>
</svg>
